<mxfile host="app.diagrams.net" modified="2023-03-19T19:33:03.046Z" agent="5.0 (Windows)" etag="2X-nOQXD8ysUaW4Lmbr_" version="21.0.6" type="github">
  <diagram id="R2lEEEUBdFMjLlhIrx00" name="Page-1">
    <mxGraphModel dx="880" dy="462" grid="1" gridSize="10" guides="1" tooltips="1" connect="1" arrows="1" fold="1" page="1" pageScale="1" pageWidth="850" pageHeight="1100" math="0" shadow="0" extFonts="Permanent Marker^https://fonts.googleapis.com/css?family=Permanent+Marker">
      <root>
        <mxCell id="0" />
        <mxCell id="1" parent="0" />
        <mxCell id="7iyC_bvqfsKkwupIIiIP-1" value="" style="shape=image;verticalLabelPosition=bottom;labelBackgroundColor=default;verticalAlign=top;aspect=fixed;imageAspect=0;image=data:image/png,iVBORw0KGgoAAAANSUhEUgAAAkkAAACnCAYAAAAFUcjvAAAa5klEQVR4Xu3de6hVVR7A8R6OmkZFt9QyLTUzhyAmKkImyHQqM4r5Jyj9IyzIpEbJGSVBSEVipgS7ST5ijKKh7DkD07s/sugF9U8PqiErpnymNhqF7zX8VqzjPuuss88+656z71prfz9wuGs/1jn7rrV/v7POPnvvc4wCAABAg2PsGQAAAGCQBAAA4MQgCQAAwIFBEgAAgAODJAAAAAcGSQAAAA4MkgAAABwYJAEAADgwSAIAAHBgkAQAAODAIAkAAMCBQRIAAIADgyQAAAAHBkkAAAAODJIAAAAcGCQBAAA4MEgCAABwYJAEAADgwCAJAADAgUESAACAA4MkAAAABwZJAAAADgySAAAAHBgkAQAAODBIAgAAcGCQBAAA4MAgCQAAwIFBEgAAgAODJAAAAAcGSQAAAA4MkgAAABwYJAEAEKC3335b3XzzzWrUqFHqmGOO0X9lWuajHAyS0BKBCgDlOXjwoJozZ47Ot80eslzWQ3cxSEJTBCoAlK9V3s3m32bMOi55y1CPVkJTBCoAlEuO0Ns5Nu/hc0Sf3FscrQQnAhUAynfTTTc15Ne8h6zvks2vO3bsUFOnTlWjR49Wa9asIfe2gVaCE4EKAOUbOXJkQ37Ne8j6Ltn8OmvWLF1evXp13TcEaI1WghOBCgDlGzRoUEN+zXvI+i7Z/Gry+e7du/WHVXJvcbQSnAhUAOicnp6ehrzpegwYMKBhXt6jyAdUk88PHTqkH9llyEcrVQyBCgDlK5rrunGqg7l9y86dO9XWrVvrliEfrVQxRQODQAWAzima6zp10Uw2v86ePVuXV61apebOnVu3DPlopYopGhgEKgB0Tju5rtO3X5EPplOmTNHfJEj+JfcWRytVTDuBQaACQGe0k+u4kW84ivcakkCgAkD52sm9Bj8J1f/a7zVEjUAFgPL55F70P3qtYghUACgfuTdO9FrFEKgAUD5yb5zotYohUAGgfOTeONFrFUOgAkD5yL1xotcqhkAFgPKRe+NEr1UMgQoA5Ssr9x4+fFg99dRTatq0aeqMM87QrztixAg1depU9eCDD6q9e/faVZCjnF5DMAhUAChfGbl3165davLkyWrSpElqw4YN+uefhPx98cUX9a1bJB8/++yzVk000/1eQ1AIVAAoX7dzr3wwlbw7b948XW7mww8/VOecc45au3atvQgO3e01BIdABYDydTv3Pvnkk/qDaV7eNb7++mt1+umnq08//dReBEt3ew3BIVABoHzdzr3XXnuteuaZZ+zZTf31r39Vt956qz1bb6c8nn76aXXJJZeo0aNH628AhPwE1fz589Wpp56qzjzzTLV48eJarjf1HnvsMXXxxRfr5Q888IDq7e3VeV6e56WXXqo9z4IFC9Tw4cPVyJEj1cKFC4P9eavu9hqCQ6DGGagA4tbt3Ct5zJzaUMSmTZvU2Wefbc+u5VD5NuDVV1/V5XHjxully5Yt09OST1euXKnLK1asqKt31113qffee682Lb/v+cEHH+iyfHsgli9frqdXr16t1q9fr8uSx0PU3V5DcAjUOAMVQNy6nXsHDhyoDhw4YM9uat++fWrw4MH27FrO3Llzp9q/f78uH3fccXrZmDFj9PSOHTvU9u3bdXnChAkN9Q4dOlSblnXlw2f2ecaPH19b96efftLlsWPH1rYhJN3tNQSHQI0zUAHEzTf39vT01PJYs4fksmHDhul8WNQ333yjf6zcZp7TNS35XcqSS00+HTJkSMN6raYl59v/w4ABA2rrhsSv1xCt7E7bDgIVAPxl81A7itaT26uYUxKKkCPoM2bMsGfn5kw5Ci9l+dC5bds2XZ44cWLDeq2m5dsDKe/Zs6e2PFTFWh/JKBpwtqL1CFQAaFQ0h9qK1pP7z7lyqYscnZfTF9588017UW7OXLRokS5nT3WQsr1eq+ns82zcuFGXr7jiitq6ISnW+khG0YCzFa1HoAJAo6I51Fa0nnzYk/vPye1VWpk9e7a68cYb7dlaXs6UnD137tzaRTNLlixRR44caViv1bScZiHnicrzDB06VE2fPl1t2bKltm5IirU+klE04GxF6xGoANCoaA61tVNPbtArR9rl9ioukjsl71500UX6PEy0Vrz1kYR2Ai6rnXoEKgDUayeHZrVbb926dfp2J3J7lS+//FLP++qrr9SaNWvUueeeqz+YkneLa6/1Eb12A85otx6BCgBHtZtDDZ96n332mb7/nDl/U86/nDlzpvPUBuRrv/URNZ+AEz71CFQA+JVPDhW+9dAZtH7F+Aacbz0AgH8O9a2HzqD1K8Y34HzrAQD8c6hvPXQGrV8xvgHnWw8A4J9DfeuhM2j9ivENON96AAD/HOpbD51B61eMb8D51gMA+OdQ33rtOnz4sHrqqafUtGnT9L3u5HVHjBihf0VBbhK8d+9eu0ollNP6CIZvwPnWaxeBCiBFvjnUt147du3apSZPnqwmTZqkNmzYoLZu3arny1/5mambb75Z52O5B17VdL/1ERTfgPOt1w4CFUCqfHOob72i5IOp5N158+bpcjPyKwpyO5e1a9fai7pG/vdu//+t9O+ro3S+O5xvvaJCDlSXbPDKfZ98f/MthCQAoPt849y3XlFPPvmk/mCal3cN+RUFuUnwp59+ai9KVndbH8HxDTjfekXFFqjZwU1fBjp9qQsgHr5x7luvqGuvvVY988wz9uym5FcU5CbBNpPLHn30UdXT06OmTJmidu7cqZcdPHhQzZ8/v/Z7m4sXL67l+o8++khdfvnl6sQTT1Qnn3yyuuaaa9Q333xT95ziwIED6p577lFnnXWWXveqq65S3377rV62adMmPX3SSSepwYMHqwsvvFC99tprLV+7iO62PoLjG3C+9YrqdKDKOU0SeEKCZMGCBWr48OFq5MiRauHChXqeKBqg9rQp2w+RF7A7duzQ51eNHj1a/0RLtl5eMOdtJ4Dw+eZQ33pFSV40pzYUIflNfj3BZnKZ/C7nww8/rMu33367XrZs2TI93dvbq1auXKnLK1as0MvOO+88Pf3FF1+oV155RZcvu+yyuucUS5cu1WV57jfeeEOX5YO1kPUff/xx9csvv+hvG2SZ5NhWr11Ed1sfwfENON96RXU6UOWcJvMpZvny5Xre6tWr1fr163VZBiCiaIDa083KIi9gZ82aVduWOXPm1NXNC+a87QQQvmyOaIdvvaIGDhyoj9IUtW/fPv3hz2Zy2fbt29UPP/ygy3LUR4wZM0ZPy4dEWS7lCRMm6GWS+2VaPkw+8sgj6ueff254TiG/+Snl3bt315Znvf/++/pD5gUXXKDXO/744/X8vNcuorutj+D4BpxvvaI6Hag//vhjbd748eP1PBk0yY/qSnns2LF6WdEAtaeblY1mAStHsmRaAl2CNls3L5jzthNA+OwcUZRvPfnKy+SXZg/JjcOGDdP5pig5gj1q1Ch7du055Yi4PKQ8aNAgvUzyu71syJAheplczSxH3U19OZJuvlUw84TkeykfOnTo1xfMkA+Wsky+QXj33Xfr6uW9dhF+rY9omR2nXb71+itQs4Fkgiv7GDBggF5WNECPHDlSN92sLPICVpKGlGX75JFdlhfMedsJIHzZHNGObteTr//l6uGi5Cj4jBkz7Nm13PT999/XjiSZI+jmR87lA+C2bdt0eeLEibW6ctT9hRde0Fcwm/yWfU5hjiTJc9vkNARZtmfPHv3I1mv12q0Ua0Uko2jg2Lpdr9OBmiVfy5kAcmkWoHL0R6ZlwGKC3jx3s7LIC1gZ2ElZjmrJ14vZZa2Cudl2AghfNke0o9v15P5zrlzqsn//fjVu3Dh9Ra/N5DI5D0muPpbynXfeqZctWrRIT2dPJZCykPOKZPrf//63+uSTT3RZjsBnn1Pce++9urxq1Sr11ltv6bI55cDk+Ndff13dd999dfXyXruIYq2IZJgdp13drtfpQM3KBsnGjRt12Vyynxeg5pOLnCT4pz/9qe65s+VTTjlFl81XfHkBKyc1SlkCfe7cuXXL8oI5bzsBhM/Eebu6XU8+yMn95+T8yVYkf9144432bM3ksvvvv792cYnc+05IzpZ8Zy5KWbJkiT46L7777jt1ww036DwqHzDlVjCS47LPaZ5DTmGQbZX1rr76an2ls3j++ef1KQly42H7XM+81y6iWCsiGUUDx9btep0O1Cw5f0kCR4Jk6NChavr06WrLli16WV6AyiBHAu/8889Xb7/9dt1zZ8tPPPGEfl5JCiIvYOUIklwaK19DykCpaDDnbSeA8Nl5qagy6skNeuVIthl02CQ3Sd696KKL9HmdLq7cm4L0/iPk8t2Jy6jXiUAFgBC1kwuzyqq3bt06ff85ub3Kl19+qed99dVX+lYlclRdPpjm5V0GSUiC705cVr2+BioAhKjdXGiUWe+zzz7T958z50fKqQMzZ850ntpQFe23IqLmEziizHoEKoDU+ORCUXY91KMVK8Y3cMquBwAp8c2FZddDPVqxYnwDp+x6AJAS31xYdj3UoxUrxjdwyq4HACnxzYVl10M9WrFifAOn7HoAkBLfXFh2PdSjFSvGN3DKrgcAKfHNhWXXQz1asWJ8A6fsegCQEt9cWHY91KMVK8Y3cMquBwAp8c2FZddDPVqxYnwDp+x6AJAS31xYdj3UoxUrxjdwyq4HACnxzYVl10M9WrFifAOn7HoAkBLfXFh2PdSjFSvGN3DKrgcAKfHNhWXXQz1asWJ8A6fsegCQEt9cWHY91KMVK8Y3cMquBwAp8c2FZddDPVqxYnwDp+x6AJAS31xYdj3UoxUrxjdwyq4HACnxzYVl10M9WrFifAOn7HoAkBLfXFh2PdSjFSvGN3DKrgcAKfHNhWXXQz1asWJ8A6fsegCQEt9cWHY91KMVK8Y3cMquBwApGT9+vD2rkLLroR7vYBXjGzhl1wOAEPX09OgPfzzSe0jf2hgkRYpATffhClQAYZAYRZqkb2fOnFk/r24K0SBQ0+UKVABhIPemS/r2iiuuUL29vUfnZZYjIgRqulyBCiAM5N50mdx77733Hp2XWY6IEKjpcgUqgDCQe9Plyr30dqQI1HS5AhVAGMi96XLlXno7UgRqulyBCiAM5N50uXIvvR0pAjVdrkAFEAZyb7pcuZfejhSBmi5XoAIIA7k3Xa7cS29HikBNlytQEbe9e/eqxx9/XF1//fXq5JNP1n9lWuYjLuTedLlyL70dKQI1Xa5ARXyaDYw2b97snM+AKQ7k3nS5ci+9HSkCNV2uQEUcmg2Mmg2A2l0f/Y/cmy5X7qW3I0WgpssVqAhXpwY6nXoedBe5N12u3EtvR4pATZcrUBGWbg9ouv388EfuTZcr99LbkSJQ0+UKVPS//hq49Nfrwo3cmy5X7qW3I0WgpssVqOgfoQ1QQtueKiL3psuVe+ntSBGo6XIFKsoTy0Aklu1MDbk3Xa7cS29HikBNlytQ0V2xDzhi3/6YkHvT5cq99HakCNR0uQIVnZfqwCLV/ysU5N50uXIvvR0pAjVdrkBFZ1RtAFG1/7cM5N50uXIvvR0pAjVdrkAt6umnn1YTJkyom3fgwAE1efLklvuMa73zzjtPP2fMGCj8KtZ2yO7Tu3btUrfddpsaPny4fkhZ5rWjr/t0qzhCvFy5l96OFIGaLlegFvHLL7+oESNGqPnz59fmffjhh+ryyy/Xz5m3zzRb7+6779ZvRvLcMYl1QFCWWNrH3qdnz56t989169apNWvW6PIdd9xh1crX1306L44QN1fupbcjRaCmyxWoRaxevVrX/de//lWbJ9OXXnppw+DH1my9559/Xk/LG1LoYnnjD03I7Wbv03IUSKa3b9+uH1K2j5wKsx/LEaNLLrlEjR49Wr344ot6WV/36bw4QtxcuZfejhSBmi5XoBZx1VVX6bqff/55bd4f//hH/XWEPfixNVvvk08+0dPy3CEK+Q0+RqG1p71Pn3DCCXr64MGD+uthKQ8ZMsSqdXSQNG/ePPXqq6/q8rhx4/Syvu7TeXGEuLlyL70dKQI1Xa5ALUK+lpC6P/zwg72oYfDTjL3etm3b9PTpp5+eWat/hfZGnqoQ2tnep4899tja/nnkyBFdPu6447JVNLMf79y5U+3fv79uvb7u00XiqD/YsdttZb9eGeT/sXNvWv9hhcS8c7755pt6RzRSDLa+cAVqEb/5zW90XfmUbSvaxvZ68lwyLc/dn0J4w66y/mp/e5+Wo0ZmusiRJNd0X/fpInFUBXYbp0D+Hzv3pvUfVkjMO2eKwdVJrkAtQk5Glbr/+9//7EWF29xe76efftLTZ555ZmatcvTXGzPyldkv9j7929/+Vk/L+UjmiFDeOUmu6b7u00XiqD9k/0cZCMrJ7qeeeqr+PxcvXqwOHz6sl8nRtWnTpunztB566KG6eps2bdJfQ5500klq8ODB6sILL1SvvfaaXrZjxw41depUXc+cNF/k9cx68ppycUjIZDvt3Btmb6OlUAO1FRMw2QBzlR977DF18cUX64B74IEHVG9vrz48LgH60ksv6XUlMBcsWKAT6ciRI9XChQudR1Fi4wrUIqZPn67r/uc//7EX1bWxa7rZfDkXRKZvuOGGzFrdU+YbMPqu2/1l79N//vOf9fTatWv1Q8rm6jZXHjGy033dp11xE4Ls/7hs2TJdlry5cuVKXV6xYoVeZq4QlJPiZ8yYUVfvsssu0/0nV/7JFa8yX3KumDVrVq3enDlzCr+eWW/Dhg16gBYy2U4794bZ22jJ7JwxygaXPW3Kd911l3rvvfdq0xKUH3zwgS6fc845et3ly5fraQna9evX67J8gomdK1CL+Pvf/67rPvfcc/YiZ5sff/zxmTWOzs+uZ64E+sc//pFZq7O6/UaLcnSjH+19+ueff1a33nqrGjZsmH5k75OU3aft/Tg73dd9Ovu8Icn+j2PGjNFlOfpjXwU4atQoPS0Dlv/+978NbfX+++/ro0IXXHBBXZvKB1GZ3r17t37eoq9n1vvxxx9rrxEq2U4794bZ22gpu1PHxg7K7LQpSwAfOnSoNi3BZ84lMCdgjh8/vrauOYQ+duzY2vPGyhWoRezbt08feZOja6288sorauLEifbsBn/5y190UpWTXzupG2+oCEen+jfEfTrU3JvNowMHDtRlyZkmb5pzt8wyya/mvC5TT44ESVm+Gnv33Xfrlg0aNKhWL5ubW72eWU/qhE620869YfY2WjI7Z4yywWVP5y2zp+U7czNtHgMGDKitGytXoBYln7iLvFFcd9116p133rFnN5Dn+uc//2nP9tKpN86Y+F6kUHS9GPS130Pbp0Ptl+w+I0fbpSwfLs25W6YNzREhuWLwu+++q6t34okn6vKePXv0I7ssewRq69athV8vu17oZDvt3BvHlqNBLDudix002em8Zfb02WefrcsSzClxBWqs+voGGTt7/626FPaHUPszu68tWrRIl7PnCElZZM9JuuWWW5w59fXXX1f33Xdf3TJTb9WqVWru3LmFXy+7XuhkO+3cG8eWo0EsO53LKaecorfffEedDSI7oPKms4G5cePG2g4eO1egxiT2N0Kzjz366KOqp6dHTZkypXbCad7VP6aeuYrHTGf32WxZvuq455571FlnnaU/wcvzfvvttw3r+W5P6GLdT0y/hEa2y9zWQL5KlIGMudpsyZIl+r5SQo72/P73v9dHlGTAI/XMV2NyvpZcCCP3p7JPzpZ9TvY92QdNPbMs7/Wy64VOttPOvXFsORrEstO5PPHEE2ro0KHqmmuu0dOuNwQjb1rOV5BAlsCU55MrYbZs2VJbN1auQA1drG94LmYfk0/ODz/8sC7ffvvtelne1T+mXvYqnrz9d+nSpbosr/HGG2/o8qRJkxrW892emMS0/2T7MxRyiwTZLtftEGynnXaa+tvf/qbb9uOPP9b1ZPADd+4Nr7dRSIiBis7IBqp5gwz9YW7694c//EFt3rzZ/peiYv4nuUpHztuQshztMZpd/WPqZa/iMfNc0+eee64uy9VCtux6vtsTK9l/ZD+S/8XsV6E8zMUioZk8ebIeXJrfp8vz8ssvq9/97nf6g6Ucfbzyyiudtw2pIulbBkmJCDFQ0RmuQA1dTEcCWjFviNkrdeTKHpF39Y8pZ6/iyS63p82FB66rflzP2+72xCSm/SfG9kUx0rd27qW3I0WgpssVqDGJ6Q3PxQw0vv/++9qRG/MVVt7VP64Bij0vO22OJLX6rT3f7QldrPtJLO2L9knf2rmX3o4UgZouV6DGKsY3QjPQkPN+zF2d77zzTr0s7+of1wAl7yIF83WqnAT71ltv6bKcY2Sv57s9IYpxf7CF3L7oG+lbO/fS25EiUNPlCtQUxPIGaQYa999/v95OucDA3NU57+of1wAl7yIFuSJIziU644wz9BGhq6++Wn399dcN6/luTyhi6feiQmtfdI4r99LbkSJQ0+UK1NSE/MYZ2kAjtO0pIuT+7avY+gLFuXIvvR0pAjVdrkBNWWhvqKENSkLbnmZC68duiaEv4MeVe+ntSBGo6XIFalVU5Y02FVXsL3Jvuly5l96OFIGaLlegVlEV34BjUPV+Ifemy5V76e1IEajpcgVq1VX9jbm/0f5HkXvT5cq99HakCNR0uQIVR/GGXQ7a2Y3cmy5X7qW3I0WgpssVqHDjjbyzaM/WyL3pcuVeejtSBGq6XIGK1niD90O7tYfcmy5X7qW3I0WgpssVqGgPb/z5aB9/5N50uXIvvR0pAjVdrkCFPwYEv6IdOoPcmy5X7qW3I0WgpssVqOiMqg0Uqvb/loHcmy5X7qW3I0WgpssVqOi8VAcQqf5foSD3psuVe+ntSBGo6XIFKror9oFF7NsfE3Jvuly5l96OFIGaLlegojyxDDhi2c7UkHvT5cq99HakCNR0uQIV/SO0gUho21NF5N50uXIvvR0pAjVdrkBF/+uvAUp/vS7cyL3pcuVeejtSBGq6XIGKsHR74NLt54c/cm+6XLmX3o4UgZouV6AiXJ0a0HTqedBd5N50uXIvvR0pAjVdrkBFHNod6LS7PvpfT0+PjlEe6T2kb+3cyzttpAjUdB+uQEV8mg2ANm/e7JzPwCgeM2fO1DHKI73H1KlTGSSlgkBN92EHKuLWbMDEwChevb29OkZ5pPdYunRprZ8ZJEWOQE33kQ1UAED5GCQBAAA4MEgCAABw+D/CygjKIpJYOQAAAABJRU5ErkJggg==;" vertex="1" parent="1">
          <mxGeometry x="120" y="70" width="585" height="167" as="geometry" />
        </mxCell>
      </root>
    </mxGraphModel>
  </diagram>
</mxfile>
